<?xml version="1.0" encoding="utf-8"?>
        <!-- Generator: Adobe Illustrator 24.3.0, SVG Export Plug-In . SVG Version: 6.00 Build 0)  -->
        <svg version="1.1" id="fakt" xmlns="http://www.w3.org/2000/svg" xmlns:xlink="http://www.w3.org/1999/xlink" x="0px"
                y="0px" viewBox="0 0 595.28 841.89" style="enable-background:new 0 0 595.28 841.89;" xml:space="preserve">
                <style type="text/css">
                    .st0 {
                        fill: #0162A4;
                    }
                </style>
                <g>
                    <g>
                        <path class="st0" d="M498.42,152.51c-1.26,7.57-2.37,14.28-3.51,20.98c-3.63,21.33-7.28,42.65-10.92,63.98
                    			c-3.87,22.65-7.75,45.29-11.59,67.94c-3.82,22.55-7.57,45.11-11.4,67.66c-3.4,20.01-6.88,40-10.28,60.01
                    			c-3.63,21.33-7.17,42.67-10.8,64c-3.78,22.24-7.63,44.48-11.42,66.72c-4.06,23.87-8.08,47.75-12.12,71.62
                    			c-2.91,17.17-5.78,34.34-8.84,51.48c-0.26,1.46-1.59,3.48-2.8,3.79c-1.24,0.32-3.35-0.76-4.38-1.87
                    			c-17.08-18.59-36.78-33.75-59.08-45.56c-22.66-12-46.68-19.84-72.04-23.41c-14.94-2.1-29.95-2.55-45.06-1.56
                    			c-23.18,1.52-45.48,6.6-66.98,15.19c-31.3,12.5-58.25,31.36-81.07,56.17c-0.98,1.06-2.46,2.1-3.8,2.25
                    			c-0.97,0.11-2.66-1.08-3.03-2.06c-0.4-1.07-0.06-2.89,0.66-3.84c6.73-8.76,13.62-17.41,20.46-26.08
                    			c28.2-35.77,56.4-71.54,84.61-107.3c26.55-33.65,53.12-67.28,79.67-100.93c44.02-55.79,88.03-111.58,132.04-167.37
                    			c34.61-43.87,69.21-87.74,103.82-131.61c0.51-0.65,0.93-1.53,1.6-1.86c1.27-0.61,2.89-1.5,3.99-1.14
                    			C497.25,150.08,497.91,151.82,498.42,152.51z M488.87,167.91c-0.4-0.18-0.79-0.37-1.19-0.55
                    			C359.69,329.6,231.71,491.83,103.72,654.07c0.24,0.28,0.48,0.56,0.72,0.84c45.91-32.73,96.92-47.92,153.11-43.18
                    			c56.07,4.73,103.91,27.99,144.24,68.41C430.94,508.64,459.91,338.27,488.87,167.91z" />
                        <path class="st0" d="M185.56,247.29c0.89,0.8,2.2,1.46,2.68,2.51c3.26,7.13,6.4,14.32,9.46,21.54c1.08,2.55-0.78,3.76-2.68,4.8
                    			c-6.52,3.56-13.18,6.89-19.53,10.74c-12.21,7.4-22.94,16.53-31.3,28.23c-13.78,19.27-12.99,35,2.95,52.76
                    			c8.84,9.85,19.5,17.49,30.67,24.43c21.11,13.11,43.6,23.46,66.43,33.13c4.67,1.98,5.19,3.67,2.21,7.59
                    			c-4.24,5.59-8.56,11.13-12.73,16.78c-1.68,2.27-3.51,2.89-6.13,1.75c-27.86-12.12-55.34-24.95-80.02-42.97
                    			c-13.95-10.19-26.53-21.76-35.05-37.07c-10.63-19.09-11.38-38.66-2.14-58.47c9.16-19.64,23.63-34.81,41.38-46.76
                    			c9.73-6.55,20.3-11.83,30.51-17.66C183.14,248.13,184.15,247.86,185.56,247.29z M239.44,430.97c-7.13-3.2-13.64-6.05-20.07-9.03
                    			c-21.18-9.83-41.98-20.35-60.7-34.51c-9.19-6.95-17.6-14.68-23.86-24.49c-7.19-11.26-9.49-23.21-4.69-35.97
                    			c5.43-14.43,15.27-25.59,26.93-35.28c9.25-7.69,19.47-13.93,30.23-19.27c2.23-1.11,2.81-2.22,1.61-4.53
                    			c-1.47-2.83-2.57-5.85-3.85-8.79c-1.47-3.37-1.84-3.61-4.97-1.84c-7.44,4.23-15.04,8.25-22.16,12.98
                    			c-17.37,11.55-31.89,25.88-41.03,44.96c-5.34,11.15-7.47,22.82-5.02,35.18c2.57,12.99,9.19,23.75,17.89,33.41
                    			c10.67,11.85,23.45,21.12,36.91,29.47c19.07,11.82,39.27,21.46,59.87,30.28c0.93,0.4,2.78,0.4,3.27-0.2
                    			C233.04,439.48,236.02,435.42,239.44,430.97z" />
                        <path class="st0" d="M526.15,602.59c-0.16,10.98-6.36,23.95-16.08,35.49c-12.1,14.36-27.23,24.97-43.44,34
                    			c-12.16,6.78-24.79,12.71-37.23,18.99c-1,0.51-2.1,0.94-3.2,1.12c-2.65,0.45-4.55-1.32-4.11-3.96c1.34-8.13,2.67-16.27,4.33-24.33
                    			c0.28-1.38,1.95-2.8,3.33-3.59c12.17-6.97,24.77-13.27,36.53-20.88c7.81-5.05,15.01-11.36,21.47-18.08
                    			c13.38-13.91,13.92-29.09,2.69-44.82c-8.64-12.1-20.01-21.03-32.76-28.37c-2.41-1.39-4.84-2.78-7.36-3.97
                    			c-2.45-1.15-3.3-2.93-2.86-5.5c1.06-6.19,2.05-12.4,3.16-18.58c0.77-4.3,2.55-5.32,6.47-3.46c24.76,11.79,46.61,27.08,60.66,51.47
                    			C523.09,577.38,526.23,587.34,526.15,602.59z M429.98,682.9c1.56-0.55,2.44-0.75,3.22-1.15c9.47-4.82,19.09-9.38,28.35-14.58
                    			c16.18-9.08,31.52-19.36,43.55-33.81c8.32-9.99,13.95-21.14,14.19-34.49c0.21-11.46-3.61-21.67-9.69-31.14
                    			c-12.44-19.41-30.44-32.25-50.57-42.53c-0.56-0.29-1.31-0.2-2.11-0.31c-0.7,3.78-1.35,7.32-2.01,10.85
                    			c-0.36,1.94,0.17,3.24,2.08,4.25c3.73,1.98,7.39,4.13,10.93,6.44c13.21,8.64,24.7,19.02,32.3,33.13
                    			c6.82,12.66,6.82,25.23-0.73,37.63c-5.8,9.53-13.9,16.85-22.71,23.42c-12.71,9.48-26.52,17.12-40.73,24.08
                    			c-1.17,0.57-2.92,1.31-3.14,2.27C431.74,672.01,430.99,677.16,429.98,682.9z" />
                        <path class="st0"
                            d="M391.61,225.9c-0.01,19.02-15.21,34.18-34.28,34.18c-19.11,0-34.6-15.39-34.58-34.35
                    			c0.02-18.89,15.68-34.69,34.61-34.45C378,191.55,392.18,208.46,391.61,225.9z M384.75,225.91c0.01-15.51-12.16-27.79-27.56-27.82
                    			c-15.02-0.02-27.58,12.56-27.6,27.64c-0.01,15.2,12.3,27.47,27.59,27.49C372.67,253.24,384.75,241.27,384.75,225.91z" />
                        <path class="st0"
                            d="M280.77,258.94c-13.91,0.04-24.97-10.81-25.01-24.53c-0.03-14.02,10.95-25.2,24.75-25.21
                    			c13.95-0.01,24.95,11,24.95,24.98C305.47,248.14,294.73,258.9,280.77,258.94z M298.58,234.25c0.83-8.8-7.07-18.09-17.82-18.19
                    			c-10.05-0.09-18.11,7.92-18.14,17.96c-0.02,10.35,7.58,17.62,17.9,18.06C290.66,252.52,299.33,243.08,298.58,234.25z" />
                        <path class="st0"
                            d="M224.59,267c-10.59-0.09-18.58-8.33-18.39-19.11c0.16-8.86,6.85-17.73,18.67-18.1
                    			c10.33-0.32,18.61,8.62,18.55,19.15C243.35,259.02,234.95,267.08,224.59,267z M224.86,260.05c6.83,0,11.73-4.85,11.71-11.58
                    			c-0.02-6.45-5.41-11.84-11.82-11.81c-6.4,0.03-11.72,5.44-11.72,11.9C213.04,255.19,218.04,260.05,224.86,260.05z" />
                        <path class="st0" d="M405.84,485.24c-0.96,34.47-27.54,60.66-61.43,60.46c-34.04-0.19-60.56-26.72-60.53-60.88
                    			c0.03-35.93,29.58-60.88,61.41-60.62C376.6,424.47,405.24,449.28,405.84,485.24z M344.75,431.17
                    			c-27.18-0.57-53.98,21.14-54.02,53.8c-0.04,30.32,23.79,53.92,54.05,53.9c30.37-0.02,54.03-23.67,54.04-53.93
                    			C398.84,452.8,372.42,430.6,344.75,431.17z" />
                    </g>
                </g>
        </svg>